<mxfile host="app.diagrams.net" modified="2023-05-17T14:24:22.685Z" agent="Mozilla/5.0 (Windows NT 10.0; Win64; x64) AppleWebKit/537.36 (KHTML, like Gecko) Chrome/113.0.0.0 Safari/537.36" etag="0644RkyKer0nSk3dq_dt" version="21.3.2" type="device">
  <diagram name="Page-1" id="-3dwIuSQqCT9iZShynjZ">
    <mxGraphModel dx="1179" dy="449" grid="1" gridSize="10" guides="1" tooltips="1" connect="1" arrows="1" fold="1" page="1" pageScale="1" pageWidth="850" pageHeight="1100" math="0" shadow="0">
      <root>
        <mxCell id="0" />
        <mxCell id="1" parent="0" />
        <mxCell id="ON8yUPFjq1yNMEjd20Bz-9" value="" style="edgeStyle=orthogonalEdgeStyle;rounded=0;orthogonalLoop=1;jettySize=auto;html=1;" edge="1" parent="1" source="9MQygihxqsUgFHUWDIqc-1" target="ON8yUPFjq1yNMEjd20Bz-1">
          <mxGeometry relative="1" as="geometry" />
        </mxCell>
        <mxCell id="9MQygihxqsUgFHUWDIqc-1" value="Mulai" style="strokeWidth=2;html=1;shape=mxgraph.flowchart.start_1;whiteSpace=wrap;" parent="1" vertex="1">
          <mxGeometry x="340" y="20" width="100" height="60" as="geometry" />
        </mxCell>
        <mxCell id="ON8yUPFjq1yNMEjd20Bz-10" value="" style="edgeStyle=orthogonalEdgeStyle;rounded=0;orthogonalLoop=1;jettySize=auto;html=1;" edge="1" parent="1" source="ON8yUPFjq1yNMEjd20Bz-1" target="ON8yUPFjq1yNMEjd20Bz-2">
          <mxGeometry relative="1" as="geometry" />
        </mxCell>
        <mxCell id="ON8yUPFjq1yNMEjd20Bz-1" value="Studi Literatur" style="rounded=1;whiteSpace=wrap;html=1;absoluteArcSize=1;arcSize=14;strokeWidth=2;" vertex="1" parent="1">
          <mxGeometry x="325" y="110" width="130" height="50" as="geometry" />
        </mxCell>
        <mxCell id="ON8yUPFjq1yNMEjd20Bz-11" value="" style="edgeStyle=orthogonalEdgeStyle;rounded=0;orthogonalLoop=1;jettySize=auto;html=1;" edge="1" parent="1" source="ON8yUPFjq1yNMEjd20Bz-2" target="ON8yUPFjq1yNMEjd20Bz-3">
          <mxGeometry relative="1" as="geometry" />
        </mxCell>
        <mxCell id="ON8yUPFjq1yNMEjd20Bz-2" value="Identifikasi masalah dan pemilihan studi kasus" style="rounded=1;whiteSpace=wrap;html=1;absoluteArcSize=1;arcSize=14;strokeWidth=2;" vertex="1" parent="1">
          <mxGeometry x="325" y="200" width="130" height="50" as="geometry" />
        </mxCell>
        <mxCell id="ON8yUPFjq1yNMEjd20Bz-12" value="" style="edgeStyle=orthogonalEdgeStyle;rounded=0;orthogonalLoop=1;jettySize=auto;html=1;" edge="1" parent="1" source="ON8yUPFjq1yNMEjd20Bz-3" target="ON8yUPFjq1yNMEjd20Bz-4">
          <mxGeometry relative="1" as="geometry" />
        </mxCell>
        <mxCell id="ON8yUPFjq1yNMEjd20Bz-3" value="Perancangan konsep blockchain pada sistem IoT" style="rounded=1;whiteSpace=wrap;html=1;absoluteArcSize=1;arcSize=14;strokeWidth=2;" vertex="1" parent="1">
          <mxGeometry x="325" y="290" width="130" height="50" as="geometry" />
        </mxCell>
        <mxCell id="ON8yUPFjq1yNMEjd20Bz-13" value="" style="edgeStyle=orthogonalEdgeStyle;rounded=0;orthogonalLoop=1;jettySize=auto;html=1;" edge="1" parent="1" source="ON8yUPFjq1yNMEjd20Bz-4" target="ON8yUPFjq1yNMEjd20Bz-5">
          <mxGeometry relative="1" as="geometry" />
        </mxCell>
        <mxCell id="ON8yUPFjq1yNMEjd20Bz-4" value="Implementasi konsep blockchain ke dalam sistem IoT" style="rounded=1;whiteSpace=wrap;html=1;absoluteArcSize=1;arcSize=14;strokeWidth=2;" vertex="1" parent="1">
          <mxGeometry x="325" y="380" width="130" height="50" as="geometry" />
        </mxCell>
        <mxCell id="ON8yUPFjq1yNMEjd20Bz-14" value="" style="edgeStyle=orthogonalEdgeStyle;rounded=0;orthogonalLoop=1;jettySize=auto;html=1;" edge="1" parent="1" source="ON8yUPFjq1yNMEjd20Bz-5" target="ON8yUPFjq1yNMEjd20Bz-6">
          <mxGeometry relative="1" as="geometry" />
        </mxCell>
        <mxCell id="ON8yUPFjq1yNMEjd20Bz-5" value="Analisis dan pengujian&amp;nbsp;" style="rounded=1;whiteSpace=wrap;html=1;absoluteArcSize=1;arcSize=14;strokeWidth=2;" vertex="1" parent="1">
          <mxGeometry x="325" y="470" width="130" height="50" as="geometry" />
        </mxCell>
        <mxCell id="ON8yUPFjq1yNMEjd20Bz-15" value="" style="edgeStyle=orthogonalEdgeStyle;rounded=0;orthogonalLoop=1;jettySize=auto;html=1;" edge="1" parent="1" source="ON8yUPFjq1yNMEjd20Bz-6" target="ON8yUPFjq1yNMEjd20Bz-8">
          <mxGeometry relative="1" as="geometry" />
        </mxCell>
        <mxCell id="ON8yUPFjq1yNMEjd20Bz-6" value="Kesimpulan dan Saran" style="rounded=1;whiteSpace=wrap;html=1;absoluteArcSize=1;arcSize=14;strokeWidth=2;" vertex="1" parent="1">
          <mxGeometry x="325" y="560" width="130" height="50" as="geometry" />
        </mxCell>
        <mxCell id="ON8yUPFjq1yNMEjd20Bz-8" value="Selesai" style="strokeWidth=2;html=1;shape=mxgraph.flowchart.start_1;whiteSpace=wrap;" vertex="1" parent="1">
          <mxGeometry x="340" y="650" width="100" height="60" as="geometry" />
        </mxCell>
      </root>
    </mxGraphModel>
  </diagram>
</mxfile>
